<svg width="40" height="40" viewBox="0 0 40 40" fill="none" xmlns="http://www.w3.org/2000/svg">
<rect x="0.5" y="0.5" width="39" height="39" rx="19.5" fill="#4DC591"/>
<rect x="0.5" y="0.5" width="39" height="39" rx="19.5" stroke="#4DC591"/>
<path d="M22 28.7251V26.6751C23.5 26.2418 24.7083 25.4084 25.625 24.1751C26.5417 22.9418 27 21.5418 27 19.9751C27 18.4084 26.5417 17.0084 25.625 15.7751C24.7083 14.5418 23.5 13.7084 22 13.2751V11.2251C24.0667 11.6918 25.75 12.7376 27.05 14.3626C28.35 15.9876 29 17.8584 29 19.9751C29 22.0918 28.35 23.9626 27.05 25.5876C25.75 27.2126 24.0667 28.2584 22 28.7251ZM11 23.0001V17.0001H15L20 12.0001V28.0001L15 23.0001H11ZM22 24.0001V15.9501C22.7833 16.3168 23.3958 16.8668 23.8375 17.6001C24.2792 18.3334 24.5 19.1334 24.5 20.0001C24.5 20.8501 24.2792 21.6376 23.8375 22.3626C23.3958 23.0876 22.7833 23.6334 22 24.0001ZM18 16.8501L15.85 19.0001H13V21.0001H15.85L18 23.1501V16.8501Z" fill="white"/>
</svg>
