<svg width="40" height="40" viewBox="0 0 40 40" fill="none" xmlns="http://www.w3.org/2000/svg">
<rect x="0.5" y="0.5" width="39" height="39" rx="19.5" fill="#4DC591"/>
<rect x="0.5" y="0.5" width="39" height="39" rx="19.5" stroke="#4DC591"/>
<path d="M27.8 30.6001L24.775 27.5751C24.3584 27.8417 23.9167 28.0709 23.45 28.2626C22.9834 28.4542 22.5 28.6084 22 28.7251V26.6751C22.2334 26.5917 22.4625 26.5084 22.6875 26.4251C22.9125 26.3417 23.125 26.2417 23.325 26.1251L20 22.8V28.0001L15 23H11V17H14.2L9.40002 12.2L10.8 10.8L29.2 29.2001L27.8 30.6001ZM27.6 24.8001L26.15 23.35C26.4334 22.8334 26.6459 22.2917 26.7875 21.725C26.9292 21.1584 27 20.575 27 19.975C27 18.4084 26.5417 17.0084 25.625 15.775C24.7084 14.5417 23.5 13.7084 22 13.275V11.225C24.0667 11.6917 25.75 12.7375 27.05 14.3625C28.35 15.9875 29 17.8584 29 19.975C29 20.8584 28.8792 21.7084 28.6375 22.525C28.3959 23.3417 28.05 24.1001 27.6 24.8001ZM24.25 21.45L22 19.2V15.95C22.7834 16.3167 23.3959 16.8667 23.8375 17.6C24.2792 18.3334 24.5 19.1334 24.5 20C24.5 20.25 24.4792 20.4959 24.4375 20.7375C24.3959 20.9792 24.3334 21.2167 24.25 21.45ZM20 17.2L17.4 14.6L20 12V17.2ZM18 23.15V20.8L16.2 19H13V21H15.85L18 23.15Z" fill="white"/>
</svg>
