<svg width="1452" height="916" viewBox="0 0 1452 916" fill="none" xmlns="http://www.w3.org/2000/svg">
<g clip-path="url(#clip0_82_1960)" filter="url(#filter0_d_82_1960)">
<rect width="1444" height="908" transform="translate(4)" fill="url(#paint0_linear_82_1960)"/>
<path d="M104.14 242.698C54.315 237.153 22.6362 371.312 13.0249 439.084C26.8652 480.287 64.4645 555.53 104.14 526.881C153.734 491.069 260.996 495.69 320.971 604.28C380.945 712.871 429.386 516.484 436.306 439.084C443.226 361.685 635.836 330.494 702.731 347.822C769.626 365.15 558.562 158.367 534.341 46.3108C510.121 -65.7452 327.891 144.504 260.996 158.367C194.102 172.229 166.421 249.629 104.14 242.698Z" fill="#FFF4F4" fill-opacity="0.1"/>
<path d="M817.115 264.542C767.29 258.997 735.611 393.156 726 460.929C739.84 502.132 777.44 577.375 817.115 548.725C866.709 512.914 913.997 228.318 973.971 336.908C1033.95 445.499 1200.03 386.583 1206.95 309.183C1213.87 231.784 1348.81 352.339 1415.71 369.667C1482.6 386.995 1258.85 292.267 1234.63 180.211C1210.41 68.1555 1040.87 166.349 973.971 180.211C907.077 194.074 879.396 271.474 817.115 264.542Z" fill="#FFF4F4" fill-opacity="0.1"/>
<ellipse cx="100.098" cy="71" rx="20.2312" ry="16" fill="#C4C4C4" fill-opacity="0.2"/>
<ellipse cx="122.858" cy="279" rx="20.2312" ry="16" fill="#C4C4C4" fill-opacity="0.2"/>
<ellipse cx="77.3381" cy="441" rx="20.2312" ry="16" fill="#C4C4C4" fill-opacity="0.2"/>
<ellipse cx="1320.29" cy="71" rx="20.2312" ry="16" fill="#C4C4C4" fill-opacity="0.2"/>
<ellipse cx="1343.05" cy="279" rx="20.2312" ry="16" fill="#C4C4C4" fill-opacity="0.2"/>
<ellipse cx="1297.53" cy="441" rx="20.2312" ry="16" fill="#C4C4C4" fill-opacity="0.2"/>
<ellipse cx="1140.74" cy="397" rx="20.2312" ry="16" fill="#C4C4C4" fill-opacity="0.2"/>
<ellipse cx="1163.5" cy="605" rx="20.2312" ry="16" fill="#C4C4C4" fill-opacity="0.2"/>
<ellipse cx="1117.98" cy="767" rx="20.2312" ry="16" fill="#C4C4C4" fill-opacity="0.2"/>
<ellipse cx="559.093" cy="436" rx="20.2312" ry="16" fill="#C4C4C4" fill-opacity="0.2"/>
<ellipse cx="153.205" cy="619" rx="20.2312" ry="16" fill="#C4C4C4" fill-opacity="0.2"/>
<ellipse cx="107.685" cy="781" rx="20.2312" ry="16" fill="#C4C4C4" fill-opacity="0.2"/>
<ellipse cx="242.981" cy="393" rx="20.2312" ry="16" fill="#C4C4C4" fill-opacity="0.2"/>
<ellipse cx="267.005" cy="601" rx="20.2312" ry="16" fill="#C4C4C4" fill-opacity="0.2"/>
<ellipse cx="220.221" cy="762" rx="20.2312" ry="16" fill="#C4C4C4" fill-opacity="0.2"/>
<ellipse cx="919.461" cy="71" rx="20.2312" ry="16" fill="#C4C4C4" fill-opacity="0.2"/>
<ellipse cx="942.221" cy="279" rx="20.2312" ry="16" fill="#C4C4C4" fill-opacity="0.2"/>
<ellipse cx="844.858" cy="513" rx="20.2312" ry="16" fill="#C4C4C4" fill-opacity="0.2"/>
<ellipse cx="896.7" cy="441" rx="20.2312" ry="16" fill="#C4C4C4" fill-opacity="0.2"/>
<ellipse cx="868.883" cy="721" rx="20.2312" ry="16" fill="#C4C4C4" fill-opacity="0.2"/>
<ellipse cx="393.45" cy="857" rx="20.2312" ry="16" fill="#C4C4C4" fill-opacity="0.2"/>
<g filter="url(#filter1_d_82_1960)">
<path d="M209 87L210.347 91.1459H214.706L211.18 93.7082L212.527 97.8541L209 95.2918L205.473 97.8541L206.82 93.7082L203.294 91.1459H207.653L209 87Z" fill="#FDB3DB"/>
</g>
<g filter="url(#filter2_d_82_1960)">
<path d="M93 58L94.3471 62.1459H98.7063L95.1796 64.7082L96.5267 68.8541L93 66.2918L89.4733 68.8541L90.8204 64.7082L87.2937 62.1459H91.6529L93 58Z" fill="#FDB3DB"/>
</g>
<g filter="url(#filter3_d_82_1960)">
<path d="M74 312L75.3471 316.146H79.7063L76.1796 318.708L77.5267 322.854L74 320.292L70.4733 322.854L71.8204 318.708L68.2937 316.146H72.6529L74 312Z" fill="#FDB3DB"/>
</g>
<g filter="url(#filter4_d_82_1960)">
<path d="M597 537L598.347 541.146H602.706L599.18 543.708L600.527 547.854L597 545.292L593.473 547.854L594.82 543.708L591.294 541.146H595.653L597 537Z" fill="#FDB3DB"/>
</g>
<g filter="url(#filter5_d_82_1960)">
<path d="M145 606L146.347 610.146H150.706L147.18 612.708L148.527 616.854L145 614.292L141.473 616.854L142.82 612.708L139.294 610.146H143.653L145 606Z" fill="#FDB3DB"/>
</g>
<g filter="url(#filter6_d_82_1960)">
<path d="M336 670L337.347 674.146H341.706L338.18 676.708L339.527 680.854L336 678.292L332.473 680.854L333.82 676.708L330.294 674.146H334.653L336 670Z" fill="#FDB3DB"/>
</g>
<g filter="url(#filter7_d_82_1960)">
<path d="M478 616L479.347 620.146H483.706L480.18 622.708L481.527 626.854L478 624.292L474.473 626.854L475.82 622.708L472.294 620.146H476.653L478 616Z" fill="#FDB3DB"/>
</g>
<g filter="url(#filter8_d_82_1960)">
<path d="M692 691L693.347 695.146H697.706L694.18 697.708L695.527 701.854L692 699.292L688.473 701.854L689.82 697.708L686.294 695.146H690.653L692 691Z" fill="#FDB3DB"/>
</g>
<g filter="url(#filter9_d_82_1960)">
<path d="M255 182L256.347 186.146H260.706L257.18 188.708L258.527 192.854L255 190.292L251.473 192.854L252.82 188.708L249.294 186.146H253.653L255 182Z" fill="#FDB3DB"/>
</g>
<g filter="url(#filter10_d_82_1960)">
<path d="M798 627L799.347 631.146H803.706L800.18 633.708L801.527 637.854L798 635.292L794.473 637.854L795.82 633.708L792.294 631.146H796.653L798 627Z" fill="#FDB3DB"/>
</g>
<g filter="url(#filter11_d_82_1960)">
<path d="M1009 681L1010.35 685.146H1014.71L1011.18 687.708L1012.53 691.854L1009 689.292L1005.47 691.854L1006.82 687.708L1003.29 685.146H1007.65L1009 681Z" fill="#FDB3DB"/>
</g>
<g filter="url(#filter12_d_82_1960)">
<path d="M1212 643L1213.35 647.146H1217.71L1214.18 649.708L1215.53 653.854L1212 651.292L1208.47 653.854L1209.82 649.708L1206.29 647.146H1210.65L1212 643Z" fill="#FDB3DB"/>
</g>
<g filter="url(#filter13_d_82_1960)">
<path d="M1205 751L1206.35 755.146H1210.71L1207.18 757.708L1208.53 761.854L1205 759.292L1201.47 761.854L1202.82 757.708L1199.29 755.146H1203.65L1205 751Z" fill="#FDB3DB"/>
</g>
<g filter="url(#filter14_d_82_1960)">
<path d="M961 819L962.347 823.146H966.706L963.18 825.708L964.527 829.854L961 827.292L957.473 829.854L958.82 825.708L955.294 823.146H959.653L961 819Z" fill="#FDB3DB"/>
</g>
<g filter="url(#filter15_d_82_1960)">
<path d="M641 815L642.347 819.146H646.706L643.18 821.708L644.527 825.854L641 823.292L637.473 825.854L638.82 821.708L635.294 819.146H639.653L641 815Z" fill="#FDB3DB"/>
</g>
<g filter="url(#filter16_d_82_1960)">
<path d="M429 832L430.347 836.146H434.706L431.18 838.708L432.527 842.854L429 840.292L425.473 842.854L426.82 838.708L423.294 836.146H427.653L429 832Z" fill="#FDB3DB"/>
</g>
<g filter="url(#filter17_d_82_1960)">
<path d="M264 810L265.347 814.146H269.706L266.18 816.708L267.527 820.854L264 818.292L260.473 820.854L261.82 816.708L258.294 814.146H262.653L264 810Z" fill="#FDB3DB"/>
</g>
<g filter="url(#filter18_d_82_1960)">
<path d="M100 767L101.347 771.146H105.706L102.18 773.708L103.527 777.854L100 775.292L96.4733 777.854L97.8204 773.708L94.2937 771.146H98.6529L100 767Z" fill="#FDB3DB"/>
</g>
<g filter="url(#filter19_d_82_1960)">
<path d="M1369 616L1370.35 620.146H1374.71L1371.18 622.708L1372.53 626.854L1369 624.292L1365.47 626.854L1366.82 622.708L1363.29 620.146H1367.65L1369 616Z" fill="#FDB3DB"/>
</g>
<g filter="url(#filter20_d_82_1960)">
<path d="M120 477L121.347 481.146H125.706L122.18 483.708L123.527 487.854L120 485.292L116.473 487.854L117.82 483.708L114.294 481.146H118.653L120 477Z" fill="#FDB3DB"/>
</g>
<g filter="url(#filter21_d_82_1960)">
<path d="M939 560L940.347 564.146H944.706L941.18 566.708L942.527 570.854L939 568.292L935.473 570.854L936.82 566.708L933.294 564.146H937.653L939 560Z" fill="#FDB3DB"/>
</g>
<g filter="url(#filter22_d_82_1960)">
<path d="M1212 488L1213.35 492.146H1217.71L1214.18 494.708L1215.53 498.854L1212 496.292L1208.47 498.854L1209.82 494.708L1206.29 492.146H1210.65L1212 488Z" fill="#FDB3DB"/>
</g>
<g filter="url(#filter23_d_82_1960)">
<path d="M1320 368L1321.35 372.146H1325.71L1322.18 374.708L1323.53 378.854L1320 376.292L1316.47 378.854L1317.82 374.708L1314.29 372.146H1318.65L1320 368Z" fill="#FDB3DB"/>
</g>
<g filter="url(#filter24_d_82_1960)">
<path d="M344 466L345.347 470.146H349.706L346.18 472.708L347.527 476.854L344 474.292L340.473 476.854L341.82 472.708L338.294 470.146H342.653L344 466Z" fill="#FDB3DB"/>
</g>
<g filter="url(#filter25_d_82_1960)">
<path d="M678 416L679.347 420.146H683.706L680.18 422.708L681.527 426.854L678 424.292L674.473 426.854L675.82 422.708L672.294 420.146H676.653L678 416Z" fill="#FDB3DB"/>
</g>
<g filter="url(#filter26_d_82_1960)">
<path d="M507 248L508.347 252.146H512.706L509.18 254.708L510.527 258.854L507 256.292L503.473 258.854L504.82 254.708L501.294 252.146H505.653L507 248Z" fill="#FDB3DB"/>
</g>
<g filter="url(#filter27_d_82_1960)">
<path d="M708 191L709.347 195.146H713.706L710.18 197.708L711.527 201.854L708 199.292L704.473 201.854L705.82 197.708L702.294 195.146H706.653L708 191Z" fill="#FDB3DB"/>
</g>
<g filter="url(#filter28_d_82_1960)">
<path d="M1054 417L1055.35 421.146H1059.71L1056.18 423.708L1057.53 427.854L1054 425.292L1050.47 427.854L1051.82 423.708L1048.29 421.146H1052.65L1054 417Z" fill="#FDB3DB"/>
</g>
<g filter="url(#filter29_d_82_1960)">
<path d="M1104 254L1105.35 258.146H1109.71L1106.18 260.708L1107.53 264.854L1104 262.292L1100.47 264.854L1101.82 260.708L1098.29 258.146H1102.65L1104 254Z" fill="#FDB3DB"/>
</g>
<g filter="url(#filter30_d_82_1960)">
<path d="M882 113L883.347 117.146H887.706L884.18 119.708L885.527 123.854L882 121.292L878.473 123.854L879.82 119.708L876.294 117.146H880.653L882 113Z" fill="#FDB3DB"/>
</g>
<g filter="url(#filter31_d_82_1960)">
<path d="M478 81L479.347 85.1459H483.706L480.18 87.7082L481.527 91.8541L478 89.2918L474.473 91.8541L475.82 87.7082L472.294 85.1459H476.653L478 81Z" fill="#FDB3DB"/>
</g>
<g filter="url(#filter32_d_82_1960)">
<path d="M330 300L331.347 304.146H335.706L332.18 306.708L333.527 310.854L330 308.292L326.473 310.854L327.82 306.708L324.294 304.146H328.653L330 300Z" fill="#FDB3DB"/>
</g>
<g filter="url(#filter33_d_82_1960)">
<path d="M1316 72L1317.35 76.1459H1321.71L1318.18 78.7082L1319.53 82.8541L1316 80.2918L1312.47 82.8541L1313.82 78.7082L1310.29 76.1459H1314.65L1316 72Z" fill="#FDB3DB"/>
</g>
<g filter="url(#filter34_d_82_1960)">
<path d="M1269 210L1270.35 214.146H1274.71L1271.18 216.708L1272.53 220.854L1269 218.292L1265.47 220.854L1266.82 216.708L1263.29 214.146H1267.65L1269 210Z" fill="#FDB3DB"/>
</g>
<g filter="url(#filter35_d_82_1960)">
<path d="M804 319L805.347 323.146H809.706L806.18 325.708L807.527 329.854L804 327.292L800.473 329.854L801.82 325.708L798.294 323.146H802.653L804 319Z" fill="#FDB3DB"/>
</g>
<path d="M126.586 115L131.605 100.908H133.695V103.496H132.953L129.232 115H126.586ZM129.115 111.357L129.779 109.414H136.244L136.898 111.357H129.115ZM136.811 115L133.09 103.496V100.908H134.438L139.447 115H136.811Z" fill="black"/>
<path d="M625.469 157L620.586 142.908H623.359L626.865 154.148H627.012L630.518 142.908H633.281L628.398 157H625.469Z" fill="black"/>
<path d="M792.527 165V159.443L787.586 150.908H790.34L793.719 156.973H793.855L797.225 150.908H799.979L795.037 159.443V165H792.527Z" fill="black"/>
<path d="M985.621 157V142.908H988.141V157H985.621Z" fill="black"/>
<path d="M457.621 464V449.908H466.605V452.027H460.141V456.197H466.049V458.248H460.141V464H457.621Z" fill="black"/>
<path d="M50.7246 214.322C49.3509 214.322 48.166 214.023 47.1699 213.424C46.1738 212.825 45.4056 211.975 44.8652 210.875C44.3249 209.768 44.0547 208.463 44.0547 206.959V206.939C44.0547 205.429 44.3249 204.124 44.8652 203.023C45.4121 201.923 46.1836 201.077 47.1797 200.484C48.1823 199.885 49.3639 199.586 50.7246 199.586C52.0918 199.586 53.2734 199.885 54.2695 200.484C55.2721 201.077 56.0436 201.923 56.584 203.023C57.1243 204.124 57.3945 205.429 57.3945 206.939V206.959C57.3945 208.463 57.1243 209.768 56.584 210.875C56.0436 211.975 55.2754 212.825 54.2793 213.424C53.2832 214.023 52.0983 214.322 50.7246 214.322ZM50.7246 212.145C51.5645 212.145 52.2904 211.933 52.9023 211.51C53.5208 211.08 53.9961 210.478 54.3281 209.703C54.6602 208.922 54.8262 208.007 54.8262 206.959V206.939C54.8262 205.885 54.6569 204.97 54.3184 204.195C53.9863 203.421 53.5143 202.822 52.9023 202.398C52.2904 201.975 51.5645 201.764 50.7246 201.764C49.8913 201.764 49.1654 201.975 48.5469 202.398C47.9349 202.822 47.4596 203.421 47.1211 204.195C46.7891 204.964 46.623 205.878 46.623 206.939V206.959C46.623 208.007 46.7891 208.922 47.1211 209.703C47.4531 210.478 47.9251 211.08 48.5371 211.51C49.1491 211.933 49.8783 212.145 50.7246 212.145ZM54.3867 215.455L50.041 209.557H52.5117L56.8574 215.455H54.3867Z" fill="black"/>
</g>
<defs>
<filter id="filter0_d_82_1960" x="0" y="0" width="1452" height="916" filterUnits="userSpaceOnUse" color-interpolation-filters="sRGB">
<feFlood flood-opacity="0" result="BackgroundImageFix"/>
<feColorMatrix in="SourceAlpha" type="matrix" values="0 0 0 0 0 0 0 0 0 0 0 0 0 0 0 0 0 0 127 0" result="hardAlpha"/>
<feOffset dy="4"/>
<feGaussianBlur stdDeviation="2"/>
<feComposite in2="hardAlpha" operator="out"/>
<feColorMatrix type="matrix" values="0 0 0 0 0 0 0 0 0 0 0 0 0 0 0 0 0 0 0.25 0"/>
<feBlend mode="normal" in2="BackgroundImageFix" result="effect1_dropShadow_82_1960"/>
<feBlend mode="normal" in="SourceGraphic" in2="effect1_dropShadow_82_1960" result="shape"/>
</filter>
<filter id="filter1_d_82_1960" x="203.294" y="87" width="211.413" height="210.854" filterUnits="userSpaceOnUse" color-interpolation-filters="sRGB">
<feFlood flood-opacity="0" result="BackgroundImageFix"/>
<feColorMatrix in="SourceAlpha" type="matrix" values="0 0 0 0 0 0 0 0 0 0 0 0 0 0 0 0 0 0 127 0" result="hardAlpha"/>
<feOffset dx="100" dy="100"/>
<feGaussianBlur stdDeviation="50"/>
<feColorMatrix type="matrix" values="0 0 0 0 0.345898 0 0 0 0 0.843015 0 0 0 0 1 0 0 0 1 0"/>
<feBlend mode="normal" in2="BackgroundImageFix" result="effect1_dropShadow_82_1960"/>
<feBlend mode="normal" in="SourceGraphic" in2="effect1_dropShadow_82_1960" result="shape"/>
</filter>
<filter id="filter2_d_82_1960" x="87.2937" y="58" width="211.413" height="210.854" filterUnits="userSpaceOnUse" color-interpolation-filters="sRGB">
<feFlood flood-opacity="0" result="BackgroundImageFix"/>
<feColorMatrix in="SourceAlpha" type="matrix" values="0 0 0 0 0 0 0 0 0 0 0 0 0 0 0 0 0 0 127 0" result="hardAlpha"/>
<feOffset dx="100" dy="100"/>
<feGaussianBlur stdDeviation="50"/>
<feColorMatrix type="matrix" values="0 0 0 0 0.345898 0 0 0 0 0.843015 0 0 0 0 1 0 0 0 1 0"/>
<feBlend mode="normal" in2="BackgroundImageFix" result="effect1_dropShadow_82_1960"/>
<feBlend mode="normal" in="SourceGraphic" in2="effect1_dropShadow_82_1960" result="shape"/>
</filter>
<filter id="filter3_d_82_1960" x="68.2937" y="312" width="211.413" height="210.854" filterUnits="userSpaceOnUse" color-interpolation-filters="sRGB">
<feFlood flood-opacity="0" result="BackgroundImageFix"/>
<feColorMatrix in="SourceAlpha" type="matrix" values="0 0 0 0 0 0 0 0 0 0 0 0 0 0 0 0 0 0 127 0" result="hardAlpha"/>
<feOffset dx="100" dy="100"/>
<feGaussianBlur stdDeviation="50"/>
<feColorMatrix type="matrix" values="0 0 0 0 0.345898 0 0 0 0 0.843015 0 0 0 0 1 0 0 0 1 0"/>
<feBlend mode="normal" in2="BackgroundImageFix" result="effect1_dropShadow_82_1960"/>
<feBlend mode="normal" in="SourceGraphic" in2="effect1_dropShadow_82_1960" result="shape"/>
</filter>
<filter id="filter4_d_82_1960" x="591.294" y="537" width="211.413" height="210.854" filterUnits="userSpaceOnUse" color-interpolation-filters="sRGB">
<feFlood flood-opacity="0" result="BackgroundImageFix"/>
<feColorMatrix in="SourceAlpha" type="matrix" values="0 0 0 0 0 0 0 0 0 0 0 0 0 0 0 0 0 0 127 0" result="hardAlpha"/>
<feOffset dx="100" dy="100"/>
<feGaussianBlur stdDeviation="50"/>
<feColorMatrix type="matrix" values="0 0 0 0 0.345898 0 0 0 0 0.843015 0 0 0 0 1 0 0 0 1 0"/>
<feBlend mode="normal" in2="BackgroundImageFix" result="effect1_dropShadow_82_1960"/>
<feBlend mode="normal" in="SourceGraphic" in2="effect1_dropShadow_82_1960" result="shape"/>
</filter>
<filter id="filter5_d_82_1960" x="139.294" y="606" width="211.413" height="210.854" filterUnits="userSpaceOnUse" color-interpolation-filters="sRGB">
<feFlood flood-opacity="0" result="BackgroundImageFix"/>
<feColorMatrix in="SourceAlpha" type="matrix" values="0 0 0 0 0 0 0 0 0 0 0 0 0 0 0 0 0 0 127 0" result="hardAlpha"/>
<feOffset dx="100" dy="100"/>
<feGaussianBlur stdDeviation="50"/>
<feColorMatrix type="matrix" values="0 0 0 0 0.345898 0 0 0 0 0.843015 0 0 0 0 1 0 0 0 1 0"/>
<feBlend mode="normal" in2="BackgroundImageFix" result="effect1_dropShadow_82_1960"/>
<feBlend mode="normal" in="SourceGraphic" in2="effect1_dropShadow_82_1960" result="shape"/>
</filter>
<filter id="filter6_d_82_1960" x="330.294" y="670" width="211.413" height="210.854" filterUnits="userSpaceOnUse" color-interpolation-filters="sRGB">
<feFlood flood-opacity="0" result="BackgroundImageFix"/>
<feColorMatrix in="SourceAlpha" type="matrix" values="0 0 0 0 0 0 0 0 0 0 0 0 0 0 0 0 0 0 127 0" result="hardAlpha"/>
<feOffset dx="100" dy="100"/>
<feGaussianBlur stdDeviation="50"/>
<feColorMatrix type="matrix" values="0 0 0 0 0.345898 0 0 0 0 0.843015 0 0 0 0 1 0 0 0 1 0"/>
<feBlend mode="normal" in2="BackgroundImageFix" result="effect1_dropShadow_82_1960"/>
<feBlend mode="normal" in="SourceGraphic" in2="effect1_dropShadow_82_1960" result="shape"/>
</filter>
<filter id="filter7_d_82_1960" x="472.294" y="616" width="211.413" height="210.854" filterUnits="userSpaceOnUse" color-interpolation-filters="sRGB">
<feFlood flood-opacity="0" result="BackgroundImageFix"/>
<feColorMatrix in="SourceAlpha" type="matrix" values="0 0 0 0 0 0 0 0 0 0 0 0 0 0 0 0 0 0 127 0" result="hardAlpha"/>
<feOffset dx="100" dy="100"/>
<feGaussianBlur stdDeviation="50"/>
<feColorMatrix type="matrix" values="0 0 0 0 0.345898 0 0 0 0 0.843015 0 0 0 0 1 0 0 0 1 0"/>
<feBlend mode="normal" in2="BackgroundImageFix" result="effect1_dropShadow_82_1960"/>
<feBlend mode="normal" in="SourceGraphic" in2="effect1_dropShadow_82_1960" result="shape"/>
</filter>
<filter id="filter8_d_82_1960" x="686.294" y="691" width="211.413" height="210.854" filterUnits="userSpaceOnUse" color-interpolation-filters="sRGB">
<feFlood flood-opacity="0" result="BackgroundImageFix"/>
<feColorMatrix in="SourceAlpha" type="matrix" values="0 0 0 0 0 0 0 0 0 0 0 0 0 0 0 0 0 0 127 0" result="hardAlpha"/>
<feOffset dx="100" dy="100"/>
<feGaussianBlur stdDeviation="50"/>
<feColorMatrix type="matrix" values="0 0 0 0 0.345898 0 0 0 0 0.843015 0 0 0 0 1 0 0 0 1 0"/>
<feBlend mode="normal" in2="BackgroundImageFix" result="effect1_dropShadow_82_1960"/>
<feBlend mode="normal" in="SourceGraphic" in2="effect1_dropShadow_82_1960" result="shape"/>
</filter>
<filter id="filter9_d_82_1960" x="249.294" y="182" width="211.413" height="210.854" filterUnits="userSpaceOnUse" color-interpolation-filters="sRGB">
<feFlood flood-opacity="0" result="BackgroundImageFix"/>
<feColorMatrix in="SourceAlpha" type="matrix" values="0 0 0 0 0 0 0 0 0 0 0 0 0 0 0 0 0 0 127 0" result="hardAlpha"/>
<feOffset dx="100" dy="100"/>
<feGaussianBlur stdDeviation="50"/>
<feColorMatrix type="matrix" values="0 0 0 0 0.345898 0 0 0 0 0.843015 0 0 0 0 1 0 0 0 1 0"/>
<feBlend mode="normal" in2="BackgroundImageFix" result="effect1_dropShadow_82_1960"/>
<feBlend mode="normal" in="SourceGraphic" in2="effect1_dropShadow_82_1960" result="shape"/>
</filter>
<filter id="filter10_d_82_1960" x="792.294" y="627" width="211.413" height="210.854" filterUnits="userSpaceOnUse" color-interpolation-filters="sRGB">
<feFlood flood-opacity="0" result="BackgroundImageFix"/>
<feColorMatrix in="SourceAlpha" type="matrix" values="0 0 0 0 0 0 0 0 0 0 0 0 0 0 0 0 0 0 127 0" result="hardAlpha"/>
<feOffset dx="100" dy="100"/>
<feGaussianBlur stdDeviation="50"/>
<feColorMatrix type="matrix" values="0 0 0 0 0.345898 0 0 0 0 0.843015 0 0 0 0 1 0 0 0 1 0"/>
<feBlend mode="normal" in2="BackgroundImageFix" result="effect1_dropShadow_82_1960"/>
<feBlend mode="normal" in="SourceGraphic" in2="effect1_dropShadow_82_1960" result="shape"/>
</filter>
<filter id="filter11_d_82_1960" x="1003.29" y="681" width="211.413" height="210.854" filterUnits="userSpaceOnUse" color-interpolation-filters="sRGB">
<feFlood flood-opacity="0" result="BackgroundImageFix"/>
<feColorMatrix in="SourceAlpha" type="matrix" values="0 0 0 0 0 0 0 0 0 0 0 0 0 0 0 0 0 0 127 0" result="hardAlpha"/>
<feOffset dx="100" dy="100"/>
<feGaussianBlur stdDeviation="50"/>
<feColorMatrix type="matrix" values="0 0 0 0 0.345898 0 0 0 0 0.843015 0 0 0 0 1 0 0 0 1 0"/>
<feBlend mode="normal" in2="BackgroundImageFix" result="effect1_dropShadow_82_1960"/>
<feBlend mode="normal" in="SourceGraphic" in2="effect1_dropShadow_82_1960" result="shape"/>
</filter>
<filter id="filter12_d_82_1960" x="1206.29" y="643" width="211.413" height="210.854" filterUnits="userSpaceOnUse" color-interpolation-filters="sRGB">
<feFlood flood-opacity="0" result="BackgroundImageFix"/>
<feColorMatrix in="SourceAlpha" type="matrix" values="0 0 0 0 0 0 0 0 0 0 0 0 0 0 0 0 0 0 127 0" result="hardAlpha"/>
<feOffset dx="100" dy="100"/>
<feGaussianBlur stdDeviation="50"/>
<feColorMatrix type="matrix" values="0 0 0 0 0.345898 0 0 0 0 0.843015 0 0 0 0 1 0 0 0 1 0"/>
<feBlend mode="normal" in2="BackgroundImageFix" result="effect1_dropShadow_82_1960"/>
<feBlend mode="normal" in="SourceGraphic" in2="effect1_dropShadow_82_1960" result="shape"/>
</filter>
<filter id="filter13_d_82_1960" x="1199.29" y="751" width="211.413" height="210.854" filterUnits="userSpaceOnUse" color-interpolation-filters="sRGB">
<feFlood flood-opacity="0" result="BackgroundImageFix"/>
<feColorMatrix in="SourceAlpha" type="matrix" values="0 0 0 0 0 0 0 0 0 0 0 0 0 0 0 0 0 0 127 0" result="hardAlpha"/>
<feOffset dx="100" dy="100"/>
<feGaussianBlur stdDeviation="50"/>
<feColorMatrix type="matrix" values="0 0 0 0 0.345898 0 0 0 0 0.843015 0 0 0 0 1 0 0 0 1 0"/>
<feBlend mode="normal" in2="BackgroundImageFix" result="effect1_dropShadow_82_1960"/>
<feBlend mode="normal" in="SourceGraphic" in2="effect1_dropShadow_82_1960" result="shape"/>
</filter>
<filter id="filter14_d_82_1960" x="955.294" y="819" width="211.413" height="210.854" filterUnits="userSpaceOnUse" color-interpolation-filters="sRGB">
<feFlood flood-opacity="0" result="BackgroundImageFix"/>
<feColorMatrix in="SourceAlpha" type="matrix" values="0 0 0 0 0 0 0 0 0 0 0 0 0 0 0 0 0 0 127 0" result="hardAlpha"/>
<feOffset dx="100" dy="100"/>
<feGaussianBlur stdDeviation="50"/>
<feColorMatrix type="matrix" values="0 0 0 0 0.345898 0 0 0 0 0.843015 0 0 0 0 1 0 0 0 1 0"/>
<feBlend mode="normal" in2="BackgroundImageFix" result="effect1_dropShadow_82_1960"/>
<feBlend mode="normal" in="SourceGraphic" in2="effect1_dropShadow_82_1960" result="shape"/>
</filter>
<filter id="filter15_d_82_1960" x="635.294" y="815" width="211.413" height="210.854" filterUnits="userSpaceOnUse" color-interpolation-filters="sRGB">
<feFlood flood-opacity="0" result="BackgroundImageFix"/>
<feColorMatrix in="SourceAlpha" type="matrix" values="0 0 0 0 0 0 0 0 0 0 0 0 0 0 0 0 0 0 127 0" result="hardAlpha"/>
<feOffset dx="100" dy="100"/>
<feGaussianBlur stdDeviation="50"/>
<feColorMatrix type="matrix" values="0 0 0 0 0.345898 0 0 0 0 0.843015 0 0 0 0 1 0 0 0 1 0"/>
<feBlend mode="normal" in2="BackgroundImageFix" result="effect1_dropShadow_82_1960"/>
<feBlend mode="normal" in="SourceGraphic" in2="effect1_dropShadow_82_1960" result="shape"/>
</filter>
<filter id="filter16_d_82_1960" x="423.294" y="832" width="211.413" height="210.854" filterUnits="userSpaceOnUse" color-interpolation-filters="sRGB">
<feFlood flood-opacity="0" result="BackgroundImageFix"/>
<feColorMatrix in="SourceAlpha" type="matrix" values="0 0 0 0 0 0 0 0 0 0 0 0 0 0 0 0 0 0 127 0" result="hardAlpha"/>
<feOffset dx="100" dy="100"/>
<feGaussianBlur stdDeviation="50"/>
<feColorMatrix type="matrix" values="0 0 0 0 0.345898 0 0 0 0 0.843015 0 0 0 0 1 0 0 0 1 0"/>
<feBlend mode="normal" in2="BackgroundImageFix" result="effect1_dropShadow_82_1960"/>
<feBlend mode="normal" in="SourceGraphic" in2="effect1_dropShadow_82_1960" result="shape"/>
</filter>
<filter id="filter17_d_82_1960" x="258.294" y="810" width="211.413" height="210.854" filterUnits="userSpaceOnUse" color-interpolation-filters="sRGB">
<feFlood flood-opacity="0" result="BackgroundImageFix"/>
<feColorMatrix in="SourceAlpha" type="matrix" values="0 0 0 0 0 0 0 0 0 0 0 0 0 0 0 0 0 0 127 0" result="hardAlpha"/>
<feOffset dx="100" dy="100"/>
<feGaussianBlur stdDeviation="50"/>
<feColorMatrix type="matrix" values="0 0 0 0 0.345898 0 0 0 0 0.843015 0 0 0 0 1 0 0 0 1 0"/>
<feBlend mode="normal" in2="BackgroundImageFix" result="effect1_dropShadow_82_1960"/>
<feBlend mode="normal" in="SourceGraphic" in2="effect1_dropShadow_82_1960" result="shape"/>
</filter>
<filter id="filter18_d_82_1960" x="94.2937" y="767" width="211.413" height="210.854" filterUnits="userSpaceOnUse" color-interpolation-filters="sRGB">
<feFlood flood-opacity="0" result="BackgroundImageFix"/>
<feColorMatrix in="SourceAlpha" type="matrix" values="0 0 0 0 0 0 0 0 0 0 0 0 0 0 0 0 0 0 127 0" result="hardAlpha"/>
<feOffset dx="100" dy="100"/>
<feGaussianBlur stdDeviation="50"/>
<feColorMatrix type="matrix" values="0 0 0 0 0.345898 0 0 0 0 0.843015 0 0 0 0 1 0 0 0 1 0"/>
<feBlend mode="normal" in2="BackgroundImageFix" result="effect1_dropShadow_82_1960"/>
<feBlend mode="normal" in="SourceGraphic" in2="effect1_dropShadow_82_1960" result="shape"/>
</filter>
<filter id="filter19_d_82_1960" x="1363.29" y="616" width="211.413" height="210.854" filterUnits="userSpaceOnUse" color-interpolation-filters="sRGB">
<feFlood flood-opacity="0" result="BackgroundImageFix"/>
<feColorMatrix in="SourceAlpha" type="matrix" values="0 0 0 0 0 0 0 0 0 0 0 0 0 0 0 0 0 0 127 0" result="hardAlpha"/>
<feOffset dx="100" dy="100"/>
<feGaussianBlur stdDeviation="50"/>
<feColorMatrix type="matrix" values="0 0 0 0 0.345898 0 0 0 0 0.843015 0 0 0 0 1 0 0 0 1 0"/>
<feBlend mode="normal" in2="BackgroundImageFix" result="effect1_dropShadow_82_1960"/>
<feBlend mode="normal" in="SourceGraphic" in2="effect1_dropShadow_82_1960" result="shape"/>
</filter>
<filter id="filter20_d_82_1960" x="114.294" y="477" width="211.413" height="210.854" filterUnits="userSpaceOnUse" color-interpolation-filters="sRGB">
<feFlood flood-opacity="0" result="BackgroundImageFix"/>
<feColorMatrix in="SourceAlpha" type="matrix" values="0 0 0 0 0 0 0 0 0 0 0 0 0 0 0 0 0 0 127 0" result="hardAlpha"/>
<feOffset dx="100" dy="100"/>
<feGaussianBlur stdDeviation="50"/>
<feColorMatrix type="matrix" values="0 0 0 0 0.345898 0 0 0 0 0.843015 0 0 0 0 1 0 0 0 1 0"/>
<feBlend mode="normal" in2="BackgroundImageFix" result="effect1_dropShadow_82_1960"/>
<feBlend mode="normal" in="SourceGraphic" in2="effect1_dropShadow_82_1960" result="shape"/>
</filter>
<filter id="filter21_d_82_1960" x="933.294" y="560" width="211.413" height="210.854" filterUnits="userSpaceOnUse" color-interpolation-filters="sRGB">
<feFlood flood-opacity="0" result="BackgroundImageFix"/>
<feColorMatrix in="SourceAlpha" type="matrix" values="0 0 0 0 0 0 0 0 0 0 0 0 0 0 0 0 0 0 127 0" result="hardAlpha"/>
<feOffset dx="100" dy="100"/>
<feGaussianBlur stdDeviation="50"/>
<feColorMatrix type="matrix" values="0 0 0 0 0.345898 0 0 0 0 0.843015 0 0 0 0 1 0 0 0 1 0"/>
<feBlend mode="normal" in2="BackgroundImageFix" result="effect1_dropShadow_82_1960"/>
<feBlend mode="normal" in="SourceGraphic" in2="effect1_dropShadow_82_1960" result="shape"/>
</filter>
<filter id="filter22_d_82_1960" x="1206.29" y="488" width="211.413" height="210.854" filterUnits="userSpaceOnUse" color-interpolation-filters="sRGB">
<feFlood flood-opacity="0" result="BackgroundImageFix"/>
<feColorMatrix in="SourceAlpha" type="matrix" values="0 0 0 0 0 0 0 0 0 0 0 0 0 0 0 0 0 0 127 0" result="hardAlpha"/>
<feOffset dx="100" dy="100"/>
<feGaussianBlur stdDeviation="50"/>
<feColorMatrix type="matrix" values="0 0 0 0 0.345898 0 0 0 0 0.843015 0 0 0 0 1 0 0 0 1 0"/>
<feBlend mode="normal" in2="BackgroundImageFix" result="effect1_dropShadow_82_1960"/>
<feBlend mode="normal" in="SourceGraphic" in2="effect1_dropShadow_82_1960" result="shape"/>
</filter>
<filter id="filter23_d_82_1960" x="1314.29" y="368" width="211.413" height="210.854" filterUnits="userSpaceOnUse" color-interpolation-filters="sRGB">
<feFlood flood-opacity="0" result="BackgroundImageFix"/>
<feColorMatrix in="SourceAlpha" type="matrix" values="0 0 0 0 0 0 0 0 0 0 0 0 0 0 0 0 0 0 127 0" result="hardAlpha"/>
<feOffset dx="100" dy="100"/>
<feGaussianBlur stdDeviation="50"/>
<feColorMatrix type="matrix" values="0 0 0 0 0.345898 0 0 0 0 0.843015 0 0 0 0 1 0 0 0 1 0"/>
<feBlend mode="normal" in2="BackgroundImageFix" result="effect1_dropShadow_82_1960"/>
<feBlend mode="normal" in="SourceGraphic" in2="effect1_dropShadow_82_1960" result="shape"/>
</filter>
<filter id="filter24_d_82_1960" x="338.294" y="466" width="211.413" height="210.854" filterUnits="userSpaceOnUse" color-interpolation-filters="sRGB">
<feFlood flood-opacity="0" result="BackgroundImageFix"/>
<feColorMatrix in="SourceAlpha" type="matrix" values="0 0 0 0 0 0 0 0 0 0 0 0 0 0 0 0 0 0 127 0" result="hardAlpha"/>
<feOffset dx="100" dy="100"/>
<feGaussianBlur stdDeviation="50"/>
<feColorMatrix type="matrix" values="0 0 0 0 0.345898 0 0 0 0 0.843015 0 0 0 0 1 0 0 0 1 0"/>
<feBlend mode="normal" in2="BackgroundImageFix" result="effect1_dropShadow_82_1960"/>
<feBlend mode="normal" in="SourceGraphic" in2="effect1_dropShadow_82_1960" result="shape"/>
</filter>
<filter id="filter25_d_82_1960" x="672.294" y="416" width="211.413" height="210.854" filterUnits="userSpaceOnUse" color-interpolation-filters="sRGB">
<feFlood flood-opacity="0" result="BackgroundImageFix"/>
<feColorMatrix in="SourceAlpha" type="matrix" values="0 0 0 0 0 0 0 0 0 0 0 0 0 0 0 0 0 0 127 0" result="hardAlpha"/>
<feOffset dx="100" dy="100"/>
<feGaussianBlur stdDeviation="50"/>
<feColorMatrix type="matrix" values="0 0 0 0 0.345898 0 0 0 0 0.843015 0 0 0 0 1 0 0 0 1 0"/>
<feBlend mode="normal" in2="BackgroundImageFix" result="effect1_dropShadow_82_1960"/>
<feBlend mode="normal" in="SourceGraphic" in2="effect1_dropShadow_82_1960" result="shape"/>
</filter>
<filter id="filter26_d_82_1960" x="501.294" y="248" width="211.413" height="210.854" filterUnits="userSpaceOnUse" color-interpolation-filters="sRGB">
<feFlood flood-opacity="0" result="BackgroundImageFix"/>
<feColorMatrix in="SourceAlpha" type="matrix" values="0 0 0 0 0 0 0 0 0 0 0 0 0 0 0 0 0 0 127 0" result="hardAlpha"/>
<feOffset dx="100" dy="100"/>
<feGaussianBlur stdDeviation="50"/>
<feColorMatrix type="matrix" values="0 0 0 0 0.345898 0 0 0 0 0.843015 0 0 0 0 1 0 0 0 1 0"/>
<feBlend mode="normal" in2="BackgroundImageFix" result="effect1_dropShadow_82_1960"/>
<feBlend mode="normal" in="SourceGraphic" in2="effect1_dropShadow_82_1960" result="shape"/>
</filter>
<filter id="filter27_d_82_1960" x="702.294" y="191" width="211.413" height="210.854" filterUnits="userSpaceOnUse" color-interpolation-filters="sRGB">
<feFlood flood-opacity="0" result="BackgroundImageFix"/>
<feColorMatrix in="SourceAlpha" type="matrix" values="0 0 0 0 0 0 0 0 0 0 0 0 0 0 0 0 0 0 127 0" result="hardAlpha"/>
<feOffset dx="100" dy="100"/>
<feGaussianBlur stdDeviation="50"/>
<feColorMatrix type="matrix" values="0 0 0 0 0.345898 0 0 0 0 0.843015 0 0 0 0 1 0 0 0 1 0"/>
<feBlend mode="normal" in2="BackgroundImageFix" result="effect1_dropShadow_82_1960"/>
<feBlend mode="normal" in="SourceGraphic" in2="effect1_dropShadow_82_1960" result="shape"/>
</filter>
<filter id="filter28_d_82_1960" x="1048.29" y="417" width="211.413" height="210.854" filterUnits="userSpaceOnUse" color-interpolation-filters="sRGB">
<feFlood flood-opacity="0" result="BackgroundImageFix"/>
<feColorMatrix in="SourceAlpha" type="matrix" values="0 0 0 0 0 0 0 0 0 0 0 0 0 0 0 0 0 0 127 0" result="hardAlpha"/>
<feOffset dx="100" dy="100"/>
<feGaussianBlur stdDeviation="50"/>
<feColorMatrix type="matrix" values="0 0 0 0 0.345898 0 0 0 0 0.843015 0 0 0 0 1 0 0 0 1 0"/>
<feBlend mode="normal" in2="BackgroundImageFix" result="effect1_dropShadow_82_1960"/>
<feBlend mode="normal" in="SourceGraphic" in2="effect1_dropShadow_82_1960" result="shape"/>
</filter>
<filter id="filter29_d_82_1960" x="1098.29" y="254" width="211.413" height="210.854" filterUnits="userSpaceOnUse" color-interpolation-filters="sRGB">
<feFlood flood-opacity="0" result="BackgroundImageFix"/>
<feColorMatrix in="SourceAlpha" type="matrix" values="0 0 0 0 0 0 0 0 0 0 0 0 0 0 0 0 0 0 127 0" result="hardAlpha"/>
<feOffset dx="100" dy="100"/>
<feGaussianBlur stdDeviation="50"/>
<feColorMatrix type="matrix" values="0 0 0 0 0.345898 0 0 0 0 0.843015 0 0 0 0 1 0 0 0 1 0"/>
<feBlend mode="normal" in2="BackgroundImageFix" result="effect1_dropShadow_82_1960"/>
<feBlend mode="normal" in="SourceGraphic" in2="effect1_dropShadow_82_1960" result="shape"/>
</filter>
<filter id="filter30_d_82_1960" x="876.294" y="113" width="211.413" height="210.854" filterUnits="userSpaceOnUse" color-interpolation-filters="sRGB">
<feFlood flood-opacity="0" result="BackgroundImageFix"/>
<feColorMatrix in="SourceAlpha" type="matrix" values="0 0 0 0 0 0 0 0 0 0 0 0 0 0 0 0 0 0 127 0" result="hardAlpha"/>
<feOffset dx="100" dy="100"/>
<feGaussianBlur stdDeviation="50"/>
<feColorMatrix type="matrix" values="0 0 0 0 0.345898 0 0 0 0 0.843015 0 0 0 0 1 0 0 0 1 0"/>
<feBlend mode="normal" in2="BackgroundImageFix" result="effect1_dropShadow_82_1960"/>
<feBlend mode="normal" in="SourceGraphic" in2="effect1_dropShadow_82_1960" result="shape"/>
</filter>
<filter id="filter31_d_82_1960" x="472.294" y="81" width="211.413" height="210.854" filterUnits="userSpaceOnUse" color-interpolation-filters="sRGB">
<feFlood flood-opacity="0" result="BackgroundImageFix"/>
<feColorMatrix in="SourceAlpha" type="matrix" values="0 0 0 0 0 0 0 0 0 0 0 0 0 0 0 0 0 0 127 0" result="hardAlpha"/>
<feOffset dx="100" dy="100"/>
<feGaussianBlur stdDeviation="50"/>
<feColorMatrix type="matrix" values="0 0 0 0 0.345898 0 0 0 0 0.843015 0 0 0 0 1 0 0 0 1 0"/>
<feBlend mode="normal" in2="BackgroundImageFix" result="effect1_dropShadow_82_1960"/>
<feBlend mode="normal" in="SourceGraphic" in2="effect1_dropShadow_82_1960" result="shape"/>
</filter>
<filter id="filter32_d_82_1960" x="324.294" y="300" width="211.413" height="210.854" filterUnits="userSpaceOnUse" color-interpolation-filters="sRGB">
<feFlood flood-opacity="0" result="BackgroundImageFix"/>
<feColorMatrix in="SourceAlpha" type="matrix" values="0 0 0 0 0 0 0 0 0 0 0 0 0 0 0 0 0 0 127 0" result="hardAlpha"/>
<feOffset dx="100" dy="100"/>
<feGaussianBlur stdDeviation="50"/>
<feColorMatrix type="matrix" values="0 0 0 0 0.345898 0 0 0 0 0.843015 0 0 0 0 1 0 0 0 1 0"/>
<feBlend mode="normal" in2="BackgroundImageFix" result="effect1_dropShadow_82_1960"/>
<feBlend mode="normal" in="SourceGraphic" in2="effect1_dropShadow_82_1960" result="shape"/>
</filter>
<filter id="filter33_d_82_1960" x="1310.29" y="72" width="211.413" height="210.854" filterUnits="userSpaceOnUse" color-interpolation-filters="sRGB">
<feFlood flood-opacity="0" result="BackgroundImageFix"/>
<feColorMatrix in="SourceAlpha" type="matrix" values="0 0 0 0 0 0 0 0 0 0 0 0 0 0 0 0 0 0 127 0" result="hardAlpha"/>
<feOffset dx="100" dy="100"/>
<feGaussianBlur stdDeviation="50"/>
<feColorMatrix type="matrix" values="0 0 0 0 0.345898 0 0 0 0 0.843015 0 0 0 0 1 0 0 0 1 0"/>
<feBlend mode="normal" in2="BackgroundImageFix" result="effect1_dropShadow_82_1960"/>
<feBlend mode="normal" in="SourceGraphic" in2="effect1_dropShadow_82_1960" result="shape"/>
</filter>
<filter id="filter34_d_82_1960" x="1263.29" y="210" width="211.413" height="210.854" filterUnits="userSpaceOnUse" color-interpolation-filters="sRGB">
<feFlood flood-opacity="0" result="BackgroundImageFix"/>
<feColorMatrix in="SourceAlpha" type="matrix" values="0 0 0 0 0 0 0 0 0 0 0 0 0 0 0 0 0 0 127 0" result="hardAlpha"/>
<feOffset dx="100" dy="100"/>
<feGaussianBlur stdDeviation="50"/>
<feColorMatrix type="matrix" values="0 0 0 0 0.345898 0 0 0 0 0.843015 0 0 0 0 1 0 0 0 1 0"/>
<feBlend mode="normal" in2="BackgroundImageFix" result="effect1_dropShadow_82_1960"/>
<feBlend mode="normal" in="SourceGraphic" in2="effect1_dropShadow_82_1960" result="shape"/>
</filter>
<filter id="filter35_d_82_1960" x="798.294" y="319" width="211.413" height="210.854" filterUnits="userSpaceOnUse" color-interpolation-filters="sRGB">
<feFlood flood-opacity="0" result="BackgroundImageFix"/>
<feColorMatrix in="SourceAlpha" type="matrix" values="0 0 0 0 0 0 0 0 0 0 0 0 0 0 0 0 0 0 127 0" result="hardAlpha"/>
<feOffset dx="100" dy="100"/>
<feGaussianBlur stdDeviation="50"/>
<feColorMatrix type="matrix" values="0 0 0 0 0.345898 0 0 0 0 0.843015 0 0 0 0 1 0 0 0 1 0"/>
<feBlend mode="normal" in2="BackgroundImageFix" result="effect1_dropShadow_82_1960"/>
<feBlend mode="normal" in="SourceGraphic" in2="effect1_dropShadow_82_1960" result="shape"/>
</filter>
<linearGradient id="paint0_linear_82_1960" x1="77.2748" y1="78.5547" x2="1303.2" y2="820.761" gradientUnits="userSpaceOnUse">
<stop stop-color="#020202"/>
<stop offset="1" stop-color="#1D095F"/>
</linearGradient>
<clipPath id="clip0_82_1960">
<rect width="1444" height="908" fill="white" transform="translate(4)"/>
</clipPath>
</defs>
</svg>
